  0
SECTION
  2
HEADER
  9
$ACADVER
  1
AC1014
  9
$HANDSEED
  5
FFFF
  9
$INSUNITS
 70
     4
  9
$MEASUREMENT
 70
     1
  0
ENDSEC
  0
SECTION
  2
TABLES
  0
TABLE
  2
VPORT
  5
8
330
0
100
AcDbSymbolTable
 70
     4
  0
VPORT
  5
2E
330
8
100
AcDbSymbolTableRecord
100
AcDbViewportTableRecord
  2
*ACTIVE
 70
     0
 10
0.0
 20
0.0
 11
1.0
 21
1.0
 12
210.0
 22
148.5
 13
0.0
 23
0.0
 14
10.0
 24
10.0
 15
10.0
 25
10.0
 16
0.0
 26
0.0
 36
1.0
 17
0.0
 27
0.0
 37
0.0
 40
341.0
 41
1.24
 42
50.0
 43
0.0
 44
0.0
 50
0.0
 51
0.0
 71
     0
 72
   100
 73
     1
 74
     3
 75
     0
 76
     0
 77
     0
 78
     0
  0
ENDTAB
  0
TABLE
  2
LTYPE
  5
5
330
0
100
AcDbSymbolTable
 70
     1
  0
LTYPE
  5
14
330
5
100
AcDbSymbolTableRecord
100
AcDbLinetypeTableRecord
  2
BYBLOCK
 70
     0
  3

 72
    65
 73
     0
 40
0.0
  0
LTYPE
  5
15
330
5
100
AcDbSymbolTableRecord
100
AcDbLinetypeTableRecord
  2
BYLAYER
 70
     0
  3

 72
    65
 73
     0
 40
0.0
  0
LTYPE
  5
16
330
5
100
AcDbSymbolTableRecord
100
AcDbLinetypeTableRecord
  2
CONTINUOUS
 70
     0
  3
Solid line
 72
    65
 73
     0
 40
0.0
  0
ENDTAB
  0
TABLE
  2
LAYER
  5
2
100
AcDbSymbolTable
 70
1
  0
LAYER
  5
50
100
AcDbSymbolTableRecord
100
AcDbLayerTableRecord
  2
0
 70
0
  6
CONTINUOUS
  0
ENDTAB
  0
TABLE
  2
STYLE
  5
3
330
0
100
AcDbSymbolTable
 70
     1
  0
STYLE
  5
11
330
3
100
AcDbSymbolTableRecord
100
AcDbTextStyleTableRecord
  2
STANDARD
 70
     0
 40
0.0
 41
1.0
 50
0.0
 71
     0
 42
2.5
  3
txt
  4

  0
ENDTAB
  0
TABLE
  2
VIEW
  5
6
330
0
100
AcDbSymbolTable
 70
     0
  0
ENDTAB
  0
TABLE
  2
UCS
  5
7
330
0
100
AcDbSymbolTable
 70
     0
  0
ENDTAB
  0
TABLE
  2
APPID
  5
9
330
0
100
AcDbSymbolTable
 70
     2
  0
APPID
  5
12
330
9
100
AcDbSymbolTableRecord
100
AcDbRegAppTableRecord
  2
ACAD
 70
     0
  0
ENDTAB
  0
TABLE
  2
DIMSTYLE
  5
A
330
0
100
AcDbSymbolTable
 70
     1
  0
DIMSTYLE
105
27
330
A
100
AcDbSymbolTableRecord
100
AcDbDimStyleTableRecord
  2
ISO-25
 70
     0
  3

  4

  5

  6

  7

 40
1.0
 41
2.5
 42
0.625
 43
3.75
 44
1.25
 45
0.0
 46
0.0
 47
0.0
 48
0.0
140
2.5
141
2.5
142
0.0
143
0.03937007874016
144
1.0
145
0.0
146
1.0
147
0.625
 71
     0
 72
     0
 73
     0
 74
     0
 75
     0
 76
     0
 77
     1
 78
     8
170
     0
171
     3
172
     1
173
     0
174
     0
175
     0
176
     0
177
     0
178
     0
270
     2
271
     2
272
     2
273
     2
274
     3
340
11
275
     0
280
     0
281
     0
282
     0
283
     0
284
     8
285
     0
286
     0
287
     3
288
     0
  0
ENDTAB
  0
TABLE
  2
BLOCK_RECORD
  5
1
330
0
100
AcDbSymbolTable
 70
     1
  0
BLOCK_RECORD
  5
1F
330
1
100
AcDbSymbolTableRecord
100
AcDbBlockTableRecord
  2
*MODEL_SPACE
  0
BLOCK_RECORD
  5
1B
330
1
100
AcDbSymbolTableRecord
100
AcDbBlockTableRecord
  2
*PAPER_SPACE
  0
ENDTAB
  0
ENDSEC
  0
SECTION
  2
BLOCKS
  0
BLOCK
  5
20
330
1F
100
AcDbEntity
  8
0
100
AcDbBlockBegin
  2
*MODEL_SPACE
 70
     0
 10
0.0
 20
0.0
 30
0.0
  3
*MODEL_SPACE
  1

  0
ENDBLK
  5
21
330
1F
100
AcDbEntity
  8
0
100
AcDbBlockEnd
  0
BLOCK
  5
1C
330
1B
100
AcDbEntity
 67
     1
  8
0
100
AcDbBlockBegin
  2
*PAPER_SPACE
  1

  0
ENDBLK
  5
1D
330
1B
100
AcDbEntity
 67
     1
  8
0
100
AcDbBlockEnd
  0
ENDSEC
  0
SECTION
  2
ENTITIES
  0
SPLINE
  5
100
100
AcDbEntity
  8
0
 62
7
100
AcDbSpline
 70
8
 71
3
 72
8
 73
4
 74
0
 40
0
 40
0
 40
0
 40
0
 40
1
 40
1
 40
1
 40
1
 10
15.050000
 20
17.492200
 30
0.0
 10
14.059068
 20
17.492200
 30
0.0
 10
13.165709
 20
16.895277
 30
0.0
 10
12.786495
 20
15.979774
 30
0.0
  0
SPLINE
  5
101
100
AcDbEntity
  8
0
 62
7
100
AcDbSpline
 70
8
 71
3
 72
8
 73
4
 74
0
 40
0
 40
0
 40
0
 40
0
 40
1
 40
1
 40
1
 40
1
 10
12.786495
 20
15.979774
 30
0.0
 10
12.407282
 20
15.064272
 30
0.0
 10
12.616893
 20
14.010483
 30
0.0
 10
13.317588
 20
13.309788
 30
0.0
  0
SPLINE
  5
102
100
AcDbEntity
  8
0
 62
7
100
AcDbSpline
 70
8
 71
3
 72
8
 73
4
 74
0
 40
0
 40
0
 40
0
 40
0
 40
1
 40
1
 40
1
 40
1
 10
13.317588
 20
13.309788
 30
0.0
 10
14.018283
 20
12.609093
 30
0.0
 10
15.072072
 20
12.399482
 30
0.0
 10
15.987574
 20
12.778695
 30
0.0
  0
SPLINE
  5
103
100
AcDbEntity
  8
0
 62
7
100
AcDbSpline
 70
8
 71
3
 72
8
 73
4
 74
0
 40
0
 40
0
 40
0
 40
0
 40
1
 40
1
 40
1
 40
1
 10
15.987574
 20
12.778695
 30
0.0
 10
16.903077
 20
13.157909
 30
0.0
 10
17.500000
 20
14.051268
 30
0.0
 10
17.500000
 20
15.042200
 30
0.0
  0
SPLINE
  5
104
100
AcDbEntity
  8
0
 62
7
100
AcDbSpline
 70
8
 71
3
 72
8
 73
4
 74
0
 40
0
 40
0
 40
0
 40
0
 40
1
 40
1
 40
1
 40
1
 10
17.500000
 20
15.042200
 30
0.0
 10
17.500000
 20
15.691980
 30
0.0
 10
17.241876
 20
16.315147
 30
0.0
 10
16.782412
 20
16.774612
 30
0.0
  0
SPLINE
  5
105
100
AcDbEntity
  8
0
 62
7
100
AcDbSpline
 70
8
 71
3
 72
8
 73
4
 74
0
 40
0
 40
0
 40
0
 40
0
 40
1
 40
1
 40
1
 40
1
 10
16.782412
 20
16.774612
 30
0.0
 10
16.322947
 20
17.234076
 30
0.0
 10
15.699780
 20
17.492200
 30
0.0
 10
15.050000
 20
17.492200
 30
0.0
  0
SPLINE
  5
106
100
AcDbEntity
  8
0
 62
7
100
AcDbSpline
 70
8
 71
3
 72
8
 73
4
 74
0
 40
0
 40
0
 40
0
 40
0
 40
1
 40
1
 40
1
 40
1
 10
285.050000
 20
17.492200
 30
0.0
 10
284.059068
 20
17.492200
 30
0.0
 10
283.165709
 20
16.895277
 30
0.0
 10
282.786495
 20
15.979774
 30
0.0
  0
SPLINE
  5
107
100
AcDbEntity
  8
0
 62
7
100
AcDbSpline
 70
8
 71
3
 72
8
 73
4
 74
0
 40
0
 40
0
 40
0
 40
0
 40
1
 40
1
 40
1
 40
1
 10
282.786495
 20
15.979774
 30
0.0
 10
282.407282
 20
15.064272
 30
0.0
 10
282.616893
 20
14.010483
 30
0.0
 10
283.317588
 20
13.309788
 30
0.0
  0
SPLINE
  5
108
100
AcDbEntity
  8
0
 62
7
100
AcDbSpline
 70
8
 71
3
 72
8
 73
4
 74
0
 40
0
 40
0
 40
0
 40
0
 40
1
 40
1
 40
1
 40
1
 10
283.317588
 20
13.309788
 30
0.0
 10
284.018283
 20
12.609093
 30
0.0
 10
285.072072
 20
12.399482
 30
0.0
 10
285.987574
 20
12.778695
 30
0.0
  0
SPLINE
  5
109
100
AcDbEntity
  8
0
 62
7
100
AcDbSpline
 70
8
 71
3
 72
8
 73
4
 74
0
 40
0
 40
0
 40
0
 40
0
 40
1
 40
1
 40
1
 40
1
 10
285.987574
 20
12.778695
 30
0.0
 10
286.903077
 20
13.157909
 30
0.0
 10
287.500000
 20
14.051268
 30
0.0
 10
287.500000
 20
15.042200
 30
0.0
  0
SPLINE
  5
10a
100
AcDbEntity
  8
0
 62
7
100
AcDbSpline
 70
8
 71
3
 72
8
 73
4
 74
0
 40
0
 40
0
 40
0
 40
0
 40
1
 40
1
 40
1
 40
1
 10
287.500000
 20
15.042200
 30
0.0
 10
287.500000
 20
15.691980
 30
0.0
 10
287.241876
 20
16.315147
 30
0.0
 10
286.782412
 20
16.774612
 30
0.0
  0
SPLINE
  5
10b
100
AcDbEntity
  8
0
 62
7
100
AcDbSpline
 70
8
 71
3
 72
8
 73
4
 74
0
 40
0
 40
0
 40
0
 40
0
 40
1
 40
1
 40
1
 40
1
 10
286.782412
 20
16.774612
 30
0.0
 10
286.322947
 20
17.234076
 30
0.0
 10
285.699780
 20
17.492200
 30
0.0
 10
285.050000
 20
17.492200
 30
0.0
  0
LWPOLYLINE
  5
10c
100
AcDbEntity
  8
0
 62
7
100
AcDbPolyline
 90
1
 70
1
 10
15.050000
 20
17.492200
 30
0.0
  0
SPLINE
  5
10d
100
AcDbEntity
  8
0
 62
7
100
AcDbSpline
 70
8
 71
3
 72
8
 73
4
 74
0
 40
0
 40
0
 40
0
 40
0
 40
1
 40
1
 40
1
 40
1
 10
285.050000
 20
115.492200
 30
0.0
 10
284.059068
 20
115.492200
 30
0.0
 10
283.165709
 20
114.895277
 30
0.0
 10
282.786495
 20
113.979774
 30
0.0
  0
SPLINE
  5
10e
100
AcDbEntity
  8
0
 62
7
100
AcDbSpline
 70
8
 71
3
 72
8
 73
4
 74
0
 40
0
 40
0
 40
0
 40
0
 40
1
 40
1
 40
1
 40
1
 10
282.786495
 20
113.979774
 30
0.0
 10
282.407282
 20
113.064272
 30
0.0
 10
282.616893
 20
112.010483
 30
0.0
 10
283.317588
 20
111.309788
 30
0.0
  0
SPLINE
  5
10f
100
AcDbEntity
  8
0
 62
7
100
AcDbSpline
 70
8
 71
3
 72
8
 73
4
 74
0
 40
0
 40
0
 40
0
 40
0
 40
1
 40
1
 40
1
 40
1
 10
283.317588
 20
111.309788
 30
0.0
 10
284.018283
 20
110.609093
 30
0.0
 10
285.072072
 20
110.399482
 30
0.0
 10
285.987574
 20
110.778695
 30
0.0
  0
SPLINE
  5
110
100
AcDbEntity
  8
0
 62
7
100
AcDbSpline
 70
8
 71
3
 72
8
 73
4
 74
0
 40
0
 40
0
 40
0
 40
0
 40
1
 40
1
 40
1
 40
1
 10
285.987574
 20
110.778695
 30
0.0
 10
286.903077
 20
111.157909
 30
0.0
 10
287.500000
 20
112.051268
 30
0.0
 10
287.500000
 20
113.042200
 30
0.0
  0
SPLINE
  5
111
100
AcDbEntity
  8
0
 62
7
100
AcDbSpline
 70
8
 71
3
 72
8
 73
4
 74
0
 40
0
 40
0
 40
0
 40
0
 40
1
 40
1
 40
1
 40
1
 10
287.500000
 20
113.042200
 30
0.0
 10
287.500000
 20
113.691980
 30
0.0
 10
287.241876
 20
114.315147
 30
0.0
 10
286.782412
 20
114.774612
 30
0.0
  0
SPLINE
  5
112
100
AcDbEntity
  8
0
 62
7
100
AcDbSpline
 70
8
 71
3
 72
8
 73
4
 74
0
 40
0
 40
0
 40
0
 40
0
 40
1
 40
1
 40
1
 40
1
 10
286.782412
 20
114.774612
 30
0.0
 10
286.322947
 20
115.234076
 30
0.0
 10
285.699780
 20
115.492200
 30
0.0
 10
285.050000
 20
115.492200
 30
0.0
  0
LWPOLYLINE
  5
113
100
AcDbEntity
  8
0
 62
7
100
AcDbPolyline
 90
1
 70
1
 10
285.050000
 20
17.492200
 30
0.0
  0
SPLINE
  5
114
100
AcDbEntity
  8
0
 62
7
100
AcDbSpline
 70
8
 71
3
 72
8
 73
4
 74
0
 40
0
 40
0
 40
0
 40
0
 40
1
 40
1
 40
1
 40
1
 10
15.050000
 20
115.492200
 30
0.0
 10
14.059068
 20
115.492200
 30
0.0
 10
13.165709
 20
114.895277
 30
0.0
 10
12.786495
 20
113.979774
 30
0.0
  0
SPLINE
  5
115
100
AcDbEntity
  8
0
 62
7
100
AcDbSpline
 70
8
 71
3
 72
8
 73
4
 74
0
 40
0
 40
0
 40
0
 40
0
 40
1
 40
1
 40
1
 40
1
 10
12.786495
 20
113.979774
 30
0.0
 10
12.407282
 20
113.064272
 30
0.0
 10
12.616893
 20
112.010483
 30
0.0
 10
13.317588
 20
111.309788
 30
0.0
  0
SPLINE
  5
116
100
AcDbEntity
  8
0
 62
7
100
AcDbSpline
 70
8
 71
3
 72
8
 73
4
 74
0
 40
0
 40
0
 40
0
 40
0
 40
1
 40
1
 40
1
 40
1
 10
13.317588
 20
111.309788
 30
0.0
 10
14.018283
 20
110.609093
 30
0.0
 10
15.072072
 20
110.399482
 30
0.0
 10
15.987574
 20
110.778695
 30
0.0
  0
SPLINE
  5
117
100
AcDbEntity
  8
0
 62
7
100
AcDbSpline
 70
8
 71
3
 72
8
 73
4
 74
0
 40
0
 40
0
 40
0
 40
0
 40
1
 40
1
 40
1
 40
1
 10
15.987574
 20
110.778695
 30
0.0
 10
16.903077
 20
111.157909
 30
0.0
 10
17.500000
 20
112.051268
 30
0.0
 10
17.500000
 20
113.042200
 30
0.0
  0
SPLINE
  5
118
100
AcDbEntity
  8
0
 62
7
100
AcDbSpline
 70
8
 71
3
 72
8
 73
4
 74
0
 40
0
 40
0
 40
0
 40
0
 40
1
 40
1
 40
1
 40
1
 10
17.500000
 20
113.042200
 30
0.0
 10
17.500000
 20
113.691980
 30
0.0
 10
17.241876
 20
114.315147
 30
0.0
 10
16.782412
 20
114.774612
 30
0.0
  0
SPLINE
  5
119
100
AcDbEntity
  8
0
 62
7
100
AcDbSpline
 70
8
 71
3
 72
8
 73
4
 74
0
 40
0
 40
0
 40
0
 40
0
 40
1
 40
1
 40
1
 40
1
 10
16.782412
 20
114.774612
 30
0.0
 10
16.322947
 20
115.234076
 30
0.0
 10
15.699780
 20
115.492200
 30
0.0
 10
15.050000
 20
115.492200
 30
0.0
  0
LWPOLYLINE
  5
11a
100
AcDbEntity
  8
0
 62
7
100
AcDbPolyline
 90
1
 70
1
 10
285.050000
 20
115.492200
 30
0.0
  0
LWPOLYLINE
  5
11b
100
AcDbEntity
  8
0
 62
7
100
AcDbPolyline
 90
1
 70
1
 10
15.050000
 20
115.492200
 30
0.0
  0
LWPOLYLINE
  5
11c
100
AcDbEntity
  8
0
 62
7
100
AcDbPolyline
 90
4
 70
1
 10
228.972600
 20
64.120300
 30
0.0
 10
213.215700
 20
61.341900
 30
0.0
 10
210.437300
 20
77.098900
 30
0.0
 10
226.194200
 20
79.877200
 30
0.0
  0
LWPOLYLINE
  5
11d
100
AcDbEntity
  8
0
 62
7
100
AcDbPolyline
 90
3
 70
0
 10
43.246300
 20
76.925500
 30
0.0
 10
27.256000
 20
77.483900
 30
0.0
 10
27.814400
 20
93.474200
 30
0.0
  0
LWPOLYLINE
  5
11e
100
AcDbEntity
  8
0
 62
7
100
AcDbPolyline
 90
2
 70
0
 10
43.804700
 20
92.915800
 30
0.0
 10
43.246300
 20
76.925500
 30
0.0
  0
LWPOLYLINE
  5
11f
100
AcDbEntity
  8
0
 62
7
100
AcDbPolyline
 90
4
 70
1
 10
216.021800
 20
41.388400
 30
0.0
 10
202.165400
 20
33.388400
 30
0.0
 10
194.165400
 20
47.244800
 30
0.0
 10
208.021800
 20
55.244800
 30
0.0
  0
LWPOLYLINE
  5
120
100
AcDbEntity
  8
0
 62
7
100
AcDbPolyline
 90
4
 70
1
 10
93.652100
 20
19.155300
 30
0.0
 10
79.795700
 20
27.155300
 30
0.0
 10
87.795700
 20
41.011700
 30
0.0
 10
101.652100
 20
33.011700
 30
0.0
  0
LWPOLYLINE
  5
121
100
AcDbEntity
  8
0
 62
7
100
AcDbPolyline
 90
4
 70
1
 10
106.201000
 20
7.738500
 30
0.0
 10
93.094600
 20
16.915700
 30
0.0
 10
102.271800
 20
30.022100
 30
0.0
 10
115.378200
 20
20.844900
 30
0.0
  0
LWPOLYLINE
  5
122
100
AcDbEntity
  8
0
 62
7
100
AcDbPolyline
 90
4
 70
0
 10
102.271800
 20
30.022100
 30
0.0
 10
111.449000
 20
43.128600
 30
0.0
 10
124.555500
 20
33.951400
 30
0.0
 10
115.378200
 20
20.844900
 30
0.0
  0
LWPOLYLINE
  5
123
100
AcDbEntity
  8
0
 62
7
100
AcDbPolyline
 90
4
 70
0
 10
87.795700
 20
41.011700
 30
0.0
 10
95.795700
 20
54.868100
 30
0.0
 10
109.652100
 20
46.868100
 30
0.0
 10
101.652100
 20
33.011700
 30
0.0
  0
LWPOLYLINE
  5
124
100
AcDbEntity
  8
0
 62
7
100
AcDbPolyline
 90
3
 70
0
 10
224.021800
 20
27.532000
 30
0.0
 10
210.165400
 20
19.532000
 30
0.0
 10
202.165400
 20
33.388400
 30
0.0
  0
LWPOLYLINE
  5
125
100
AcDbEntity
  8
0
 62
7
100
AcDbPolyline
 90
2
 70
0
 10
216.021800
 20
41.388400
 30
0.0
 10
224.021800
 20
27.532000
 30
0.0
  0
LWPOLYLINE
  5
126
100
AcDbEntity
  8
0
 62
7
100
AcDbPolyline
 90
4
 70
1
 10
210.748200
 20
17.252600
 30
0.0
 10
197.641800
 20
8.075400
 30
0.0
 10
188.464600
 20
21.181800
 30
0.0
 10
201.571000
 20
30.359000
 30
0.0
  0
LWPOLYLINE
  5
127
100
AcDbEntity
  8
0
 62
7
100
AcDbPolyline
 90
4
 70
0
 10
188.464600
 20
21.181800
 30
0.0
 10
179.287400
 20
34.288200
 30
0.0
 10
192.393800
 20
43.465500
 30
0.0
 10
201.571000
 20
30.359000
 30
0.0
  0
LWPOLYLINE
  5
128
100
AcDbEntity
  8
0
 62
7
100
AcDbPolyline
 90
4
 70
1
 10
277.409200
 20
61.561800
 30
0.0
 10
261.419000
 20
61.003400
 30
0.0
 10
260.860600
 20
76.993700
 30
0.0
 10
276.850800
 20
77.552100
 30
0.0
  0
LWPOLYLINE
  5
129
100
AcDbEntity
  8
0
 62
7
100
AcDbPolyline
 90
4
 70
1
 10
260.486500
 20
69.677100
 30
0.0
 10
244.729500
 20
66.898700
 30
0.0
 10
241.951200
 20
82.655600
 30
0.0
 10
257.708100
 20
85.434000
 30
0.0
  0
LWPOLYLINE
  5
12a
100
AcDbEntity
  8
0
 62
7
100
AcDbPolyline
 90
4
 70
1
 10
243.861300
 20
71.822700
 30
0.0
 10
228.104400
 20
69.044400
 30
0.0
 10
225.326000
 20
84.801300
 30
0.0
 10
241.082900
 20
87.579600
 30
0.0
  0
LWPOLYLINE
  5
12b
100
AcDbEntity
  8
0
 62
7
100
AcDbPolyline
 90
4
 70
1
 10
214.012500
 20
57.182100
 30
0.0
 10
198.557700
 20
53.041000
 30
0.0
 10
194.416600
 20
68.495800
 30
0.0
 10
209.871400
 20
72.636900
 30
0.0
  0
LWPOLYLINE
  5
12c
100
AcDbEntity
  8
0
 62
7
100
AcDbPolyline
 90
4
 70
1
 10
105.567300
 20
53.094100
 30
0.0
 10
90.112500
 20
57.235300
 30
0.0
 10
94.253600
 20
72.690100
 30
0.0
 10
109.708400
 20
68.549000
 30
0.0
  0
LWPOLYLINE
  5
12d
100
AcDbEntity
  8
0
 62
7
100
AcDbPolyline
 90
4
 70
1
 10
90.899000
 20
61.349000
 30
0.0
 10
75.142100
 20
64.127400
 30
0.0
 10
77.920500
 20
79.884300
 30
0.0
 10
93.677400
 20
77.105900
 30
0.0
  0
LWPOLYLINE
  5
12e
100
AcDbEntity
  8
0
 62
7
100
AcDbPolyline
 90
4
 70
1
 10
76.010400
 20
69.051400
 30
0.0
 10
60.253400
 20
71.829800
 30
0.0
 10
63.031800
 20
87.586700
 30
0.0
 10
78.788700
 20
84.808300
 30
0.0
  0
LWPOLYLINE
  5
12f
100
AcDbEntity
  8
0
 62
7
100
AcDbPolyline
 90
4
 70
1
 10
59.385200
 20
66.905700
 30
0.0
 10
43.628300
 20
69.684100
 30
0.0
 10
46.406600
 20
85.441000
 30
0.0
 10
62.163600
 20
82.662700
 30
0.0
  0
LWPOLYLINE
  5
130
100
AcDbEntity
  8
0
 62
7
100
AcDbPolyline
 90
3
 70
0
 10
42.687900
 20
60.935300
 30
0.0
 10
26.697600
 20
61.493700
 30
0.0
 10
27.256000
 20
77.483900
 30
0.0
  0
LWPOLYLINE
  5
131
100
AcDbEntity
  8
0
 62
7
100
AcDbPolyline
 90
2
 70
0
 10
43.246300
 20
76.925500
 30
0.0
 10
42.687900
 20
60.935300
 30
0.0
  0
LWPOLYLINE
  5
132
100
AcDbEntity
  8
0
 62
7
100
AcDbPolyline
 90
4
 70
0
 10
260.860600
 20
76.993700
 30
0.0
 10
260.302200
 20
92.983900
 30
0.0
 10
276.292400
 20
93.542300
 30
0.0
 10
276.850800
 20
77.552100
 30
0.0
  0
LWPOLYLINE
  5
133
100
AcDbEntity
  8
0
 62
7
100
AcDbPolyline
 90
4
 70
0
 10
241.951200
 20
82.655600
 30
0.0
 10
239.172800
 20
98.412500
 30
0.0
 10
254.929700
 20
101.190900
 30
0.0
 10
257.708100
 20
85.434000
 30
0.0
  0
LWPOLYLINE
  5
134
100
AcDbEntity
  8
0
 62
7
100
AcDbPolyline
 90
4
 70
0
 10
225.326000
 20
84.801300
 30
0.0
 10
222.547600
 20
100.558200
 30
0.0
 10
238.304600
 20
103.336600
 30
0.0
 10
241.082900
 20
87.579600
 30
0.0
  0
LWPOLYLINE
  5
135
100
AcDbEntity
  8
0
 62
7
100
AcDbPolyline
 90
4
 70
0
 10
210.437300
 20
77.098900
 30
0.0
 10
207.658900
 20
92.855800
 30
0.0
 10
223.415900
 20
95.634200
 30
0.0
 10
226.194200
 20
79.877200
 30
0.0
  0
LWPOLYLINE
  5
136
100
AcDbEntity
  8
0
 62
7
100
AcDbPolyline
 90
4
 70
0
 10
194.416600
 20
68.495800
 30
0.0
 10
190.275500
 20
83.950600
 30
0.0
 10
205.730300
 20
88.091700
 30
0.0
 10
209.871400
 20
72.636900
 30
0.0
  0
LWPOLYLINE
  5
137
100
AcDbEntity
  8
0
 62
7
100
AcDbPolyline
 90
4
 70
0
 10
94.253600
 20
72.690100
 30
0.0
 10
98.394700
 20
88.144900
 30
0.0
 10
113.849500
 20
84.003800
 30
0.0
 10
109.708400
 20
68.549000
 30
0.0
  0
LWPOLYLINE
  5
138
100
AcDbEntity
  8
0
 62
7
100
AcDbPolyline
 90
4
 70
0
 10
77.920500
 20
79.884300
 30
0.0
 10
80.698900
 20
95.641200
 30
0.0
 10
96.455800
 20
92.862800
 30
0.0
 10
93.677400
 20
77.105900
 30
0.0
  0
LWPOLYLINE
  5
139
100
AcDbEntity
  8
0
 62
7
100
AcDbPolyline
 90
4
 70
0
 10
63.031800
 20
87.586700
 30
0.0
 10
65.810200
 20
103.343600
 30
0.0
 10
81.567100
 20
100.565200
 30
0.0
 10
78.788700
 20
84.808300
 30
0.0
  0
LWPOLYLINE
  5
13a
100
AcDbEntity
  8
0
 62
7
100
AcDbPolyline
 90
4
 70
0
 10
46.406600
 20
85.441000
 30
0.0
 10
49.185000
 20
101.197900
 30
0.0
 10
64.941900
 20
98.419600
 30
0.0
 10
62.163600
 20
82.662700
 30
0.0
  0
LWPOLYLINE
  5
13b
100
AcDbEntity
  8
0
 62
7
100
AcDbPolyline
 90
4
 70
0
 10
260.302200
 20
92.983900
 30
0.0
 10
259.743800
 20
108.974200
 30
0.0
 10
275.734000
 20
109.532600
 30
0.0
 10
276.292400
 20
93.542300
 30
0.0
  0
LWPOLYLINE
  5
13c
100
AcDbEntity
  8
0
 62
7
100
AcDbPolyline
 90
4
 70
0
 10
239.172800
 20
98.412500
 30
0.0
 10
236.394400
 20
114.169500
 30
0.0
 10
252.151300
 20
116.947800
 30
0.0
 10
254.929700
 20
101.190900
 30
0.0
  0
LWPOLYLINE
  5
13d
100
AcDbEntity
  8
0
 62
7
100
AcDbPolyline
 90
4
 70
0
 10
222.547600
 20
100.558200
 30
0.0
 10
219.769300
 20
116.315100
 30
0.0
 10
235.526200
 20
119.093500
 30
0.0
 10
238.304600
 20
103.336600
 30
0.0
  0
LWPOLYLINE
  5
13e
100
AcDbEntity
  8
0
 62
7
100
AcDbPolyline
 90
4
 70
0
 10
207.658900
 20
92.855800
 30
0.0
 10
204.880600
 20
108.612700
 30
0.0
 10
220.637500
 20
111.391100
 30
0.0
 10
223.415900
 20
95.634200
 30
0.0
  0
LWPOLYLINE
  5
13f
100
AcDbEntity
  8
0
 62
7
100
AcDbPolyline
 90
4
 70
0
 10
190.275500
 20
83.950600
 30
0.0
 10
186.134300
 20
99.405400
 30
0.0
 10
201.589200
 20
103.546500
 30
0.0
 10
205.730300
 20
88.091700
 30
0.0
  0
LWPOLYLINE
  5
140
100
AcDbEntity
  8
0
 62
7
100
AcDbPolyline
 90
4
 70
0
 10
98.394700
 20
88.144900
 30
0.0
 10
102.535800
 20
103.599700
 30
0.0
 10
117.990600
 20
99.458600
 30
0.0
 10
113.849500
 20
84.003800
 30
0.0
  0
LWPOLYLINE
  5
141
100
AcDbEntity
  8
0
 62
7
100
AcDbPolyline
 90
4
 70
0
 10
80.698900
 20
95.641200
 30
0.0
 10
83.477200
 20
111.398100
 30
0.0
 10
99.234200
 20
108.619800
 30
0.0
 10
96.455800
 20
92.862800
 30
0.0
  0
LWPOLYLINE
  5
142
100
AcDbEntity
  8
0
 62
7
100
AcDbPolyline
 90
4
 70
0
 10
65.810200
 20
103.343600
 30
0.0
 10
68.588600
 20
119.100500
 30
0.0
 10
84.345500
 20
116.322200
 30
0.0
 10
81.567100
 20
100.565200
 30
0.0
  0
LWPOLYLINE
  5
143
100
AcDbEntity
  8
0
 62
7
100
AcDbPolyline
 90
4
 70
0
 10
49.185000
 20
101.197900
 30
0.0
 10
51.963400
 20
116.954900
 30
0.0
 10
67.720300
 20
114.176500
 30
0.0
 10
64.941900
 20
98.419600
 30
0.0
  0
SPLINE
  5
144
100
AcDbEntity
  8
0
 62
7
100
AcDbSpline
 70
8
 71
3
 72
8
 73
4
 74
0
 40
0
 40
0
 40
0
 40
0
 40
1
 40
1
 40
1
 40
1
 10
300.050000
 20
106.142200
 30
0.0
 10
300.050000
 20
111.950441
 30
0.0
 10
297.742685
 20
117.520792
 30
0.0
 10
293.635639
 20
121.627839
 30
0.0
  0
SPLINE
  5
145
100
AcDbEntity
  8
0
 62
7
100
AcDbSpline
 70
8
 71
3
 72
8
 73
4
 74
0
 40
0
 40
0
 40
0
 40
0
 40
1
 40
1
 40
1
 40
1
 10
293.635639
 20
121.627839
 30
0.0
 10
289.528592
 20
125.734885
 30
0.0
 10
283.958241
 20
128.042200
 30
0.0
 10
278.150000
 20
128.042200
 30
0.0
  0
SPLINE
  5
146
100
AcDbEntity
  8
0
 62
7
100
AcDbSpline
 70
8
 71
3
 72
8
 73
4
 74
0
 40
0
 40
0
 40
0
 40
0
 40
1
 40
1
 40
1
 40
1
 10
278.150000
 20
0.042200
 30
0.0
 10
283.958241
 20
0.042200
 30
0.0
 10
289.528592
 20
2.349515
 30
0.0
 10
293.635639
 20
6.456561
 30
0.0
  0
SPLINE
  5
147
100
AcDbEntity
  8
0
 62
7
100
AcDbSpline
 70
8
 71
3
 72
8
 73
4
 74
0
 40
0
 40
0
 40
0
 40
0
 40
1
 40
1
 40
1
 40
1
 10
293.635639
 20
6.456561
 30
0.0
 10
297.742685
 20
10.563608
 30
0.0
 10
300.050000
 20
16.133959
 30
0.0
 10
300.050000
 20
21.942200
 30
0.0
  0
SPLINE
  5
148
100
AcDbEntity
  8
0
 62
7
100
AcDbSpline
 70
8
 71
3
 72
8
 73
4
 74
0
 40
0
 40
0
 40
0
 40
0
 40
1
 40
1
 40
1
 40
1
 10
0.050000
 20
21.942200
 30
0.0
 10
0.050000
 20
16.133959
 30
0.0
 10
2.357315
 20
10.563608
 30
0.0
 10
6.464361
 20
6.456561
 30
0.0
  0
SPLINE
  5
149
100
AcDbEntity
  8
0
 62
7
100
AcDbSpline
 70
8
 71
3
 72
8
 73
4
 74
0
 40
0
 40
0
 40
0
 40
0
 40
1
 40
1
 40
1
 40
1
 10
6.464361
 20
6.456561
 30
0.0
 10
10.571408
 20
2.349515
 30
0.0
 10
16.141759
 20
0.042200
 30
0.0
 10
21.950000
 20
0.042200
 30
0.0
  0
SPLINE
  5
14a
100
AcDbEntity
  8
0
 62
7
100
AcDbSpline
 70
8
 71
3
 72
8
 73
4
 74
0
 40
0
 40
0
 40
0
 40
0
 40
1
 40
1
 40
1
 40
1
 10
21.950000
 20
128.042200
 30
0.0
 10
16.141759
 20
128.042200
 30
0.0
 10
10.571408
 20
125.734885
 30
0.0
 10
6.464361
 20
121.627839
 30
0.0
  0
SPLINE
  5
14b
100
AcDbEntity
  8
0
 62
7
100
AcDbSpline
 70
8
 71
3
 72
8
 73
4
 74
0
 40
0
 40
0
 40
0
 40
0
 40
1
 40
1
 40
1
 40
1
 10
6.464361
 20
121.627839
 30
0.0
 10
2.357315
 20
117.520792
 30
0.0
 10
0.050000
 20
111.950441
 30
0.0
 10
0.050000
 20
106.142200
 30
0.0
  0
LWPOLYLINE
  5
14c
100
AcDbEntity
  8
0
 62
7
100
AcDbPolyline
 90
4
 70
1
 10
43.804700
 20
92.915800
 30
0.0
 10
27.814400
 20
93.474200
 30
0.0
 10
28.372800
 20
109.464400
 30
0.0
 10
44.363100
 20
108.906100
 30
0.0
  0
LWPOLYLINE
  5
14d
100
AcDbEntity
  8
0
 62
7
100
AcDbPolyline
 90
2
 70
0
 10
300.050000
 20
106.142200
 30
0.0
 10
300.050000
 20
21.942200
 30
0.0
  0
LWPOLYLINE
  5
14e
100
AcDbEntity
  8
0
 62
7
100
AcDbPolyline
 90
2
 70
0
 10
21.950000
 20
128.042200
 30
0.0
 10
278.150000
 20
128.042200
 30
0.0
  0
LWPOLYLINE
  5
14f
100
AcDbEntity
  8
0
 62
7
100
AcDbPolyline
 90
2
 70
0
 10
0.050000
 20
21.942200
 30
0.0
 10
0.050000
 20
106.142200
 30
0.0
  0
LWPOLYLINE
  5
150
100
AcDbEntity
  8
0
 62
7
100
AcDbPolyline
 90
2
 70
0
 10
278.150000
 20
0.042200
 30
0.0
 10
21.950000
 20
0.042200
 30
0.0
  0
ENDSEC
  0
SECTION
  2
OBJECTS
  0
DICTIONARY
  5
C
330
0
100
AcDbDictionary
  3
ACAD_GROUP
350
D
  3
ACAD_MLINESTYLE
350
17
  0
DICTIONARY
  5
D
330
C
100
AcDbDictionary
  0
DICTIONARY
  5
1A
330
C
100
AcDbDictionary
  0
DICTIONARY
  5
17
330
C
100
AcDbDictionary
  3
STANDARD
350
18
  0
DICTIONARY
  5
19
330
C
100
AcDbDictionary
  0
ENDSEC
  0
EOF
