0
SECTION
2
HEADER
9
$INSUNITS
70
4
0
ENDSEC
0
SECTION
2
TABLES
0
TABLE
2
LTYPE
0
LTYPE
72
65
70
64
2
CONTINUOUS
3
______
73
0
40
0
0
ENDTAB
0
TABLE
2
LAYER
0
ENDTAB
0
ENDSEC
0
SECTION
2
ENTITIES
0
LINE
8
0
10
38.0013061
20
-19.8912968
11
-10.3427965
21
-8.2285992
0
LINE
8
0
10
-11.0985489
20
-7.1173138
11
-3.9882515
21
43.4750813
0
LINE
8
0
10
-2.855773
20
44.3257447
11
16.9289604
21
41.4832601
0
LINE
8
0
10
18.0493184
20
42.2651849
11
20.2975024
21
52.8420588
0
LINE
8
0
10
21.4849744
20
53.6119933
11
40.2752037
21
49.5896289
0
LINE
8
0
10
41.4504539
20
50.3086561
11
43.1456312
21
56.6351436
0
LINE
8
0
10
44.370376
20
57.3422504
11
61.7570408
21
52.6835076
0
LINE
8
0
10
62.4641476
20
51.4587627
11
61.8818048
21
49.2854296
0
LINE
8
0
10
62.5889116
20
48.0606847
11
78.0437247
21
43.9195801
0
LINE
8
0
10
78.7508315
20
42.6948352
11
78.7508315
21
42.6948352
0
LINE
8
0
10
79.4579383
20
41.4700903
11
95.7515437
21
37.1042319
0
LINE
8
0
10
96.0102954
20
37.0701577
11
104.8606471
21
37.0695617
0
LINE
8
0
10
104.8606668
20
-43.3176716
11
88.5587885
21
-43.3168954
0
LINE
8
0
10
87.9852597
20
-43.1360474
11
76.4015769
21
-35.0250653
0
LINE
8
0
10
76.3280005
20
-34.9781919
11
68.639054
21
-30.5389767
0
LINE
8
0
10
68.5616723
20
-30.4986943
11
60.4840417
21
-26.7320332
0
LINE
8
0
10
60.4034435
20
-26.6986484
11
52.0604486
21
-23.6620467
0
LINE
8
0
10
51.9772475
20
-23.6358135
11
38.0256094
21
-19.8974833
0
LINE
8
0
10
171.7201227
20
-19.8912968
11
220.0642253
21
-8.2285992
0
LINE
8
0
10
220.8199777
20
-7.1173138
11
213.7096803
21
43.4750813
0
LINE
8
0
10
212.5772018
20
44.3257447
11
192.7924684
21
41.4832601
0
LINE
8
0
10
191.6721104
20
42.2651849
11
189.4239264
21
52.8420588
0
LINE
8
0
10
188.2364544
20
53.6119933
11
169.4462251
21
49.5896289
0
LINE
8
0
10
168.2709749
20
50.3086561
11
166.5757976
21
56.6351436
0
LINE
8
0
10
165.3510528
20
57.3422504
11
147.964388
21
52.6835076
0
LINE
8
0
10
147.2572812
20
51.4587627
11
147.839624
21
49.2854296
0
LINE
8
0
10
147.1325172
20
48.0606847
11
131.6777041
21
43.9195801
0
LINE
8
0
10
130.9705973
20
42.6948352
11
130.9705973
21
42.6948352
0
LINE
8
0
10
130.2634905
20
41.4700903
11
113.9698851
21
37.1042319
0
LINE
8
0
10
113.7111334
20
37.0701577
11
104.8607817
21
37.0695617
0
LINE
8
0
10
104.860762
20
-43.3176716
11
121.1626403
21
-43.3168954
0
LINE
8
0
10
121.7361691
20
-43.1360474
11
133.3198519
21
-35.0250653
0
LINE
8
0
10
133.3934283
20
-34.9781919
11
141.0823748
21
-30.5389767
0
LINE
8
0
10
141.1597565
20
-30.4986943
11
149.2373871
21
-26.7320332
0
LINE
8
0
10
149.3179853
20
-26.6986484
11
157.6609802
21
-23.6620467
0
LINE
8
0
10
157.7441813
20
-23.6358135
11
171.6958194
21
-19.8974833
0
ARC
8
0
10
-10.1082808
20
-7.2564869
40
1
50
172.0000003
51
256.4369229
0
ARC
8
0
10
-2.9979834
20
43.3359082
40
1
50
81.8242276
51
172.0000003
0
ARC
8
0
10
17.0711708
20
42.4730966
40
1
50
261.8242276
51
347.9999995
0
ARC
8
0
10
21.27565
20
52.6341471
40
1
50
77.9172361
51
167.9999995
0
ARC
8
0
10
40.4845281
20
50.5674751
40
1
50
257.9172361
51
345.0000021
0
ARC
8
0
10
44.111557
20
56.3763246
40
1
50
75.0000021
51
165.0000021
0
ARC
8
0
10
61.4982218
20
51.7175818
40
1
50
344.9999966
51
75.0000021
0
ARC
8
0
10
62.8477306
20
49.0266105
40
1
50
164.9999966
51
255.0000021
0
ARC
8
0
10
77.7849057
20
42.9536543
40
1
50
344.9999966
51
75.0000021
0
ARC
8
0
10
79.7167573
20
42.4360161
40
1
50
164.9999966
51
255.0000021
0
ARC
8
0
10
96.0103627
20
38.0701577
40
1
50
255.0000021
51
269.996144
0
ARC
8
0
10
104.8607144
20
38.0695617
40
1
50
269.996144
51
270.003856
0
ARC
8
0
10
113.7110661
20
38.0701577
40
1
50
270.003856
51
284.9999979
0
ARC
8
0
10
130.0046715
20
42.4360161
40
1
50
284.9999979
51
15.0000034
0
ARC
8
0
10
131.9365231
20
42.9536543
40
1
50
104.9999979
51
195.0000034
0
ARC
8
0
10
146.8736982
20
49.0266105
40
1
50
284.9999979
51
15.0000034
0
ARC
8
0
10
148.223207
20
51.7175818
40
1
50
104.9999979
51
195.0000034
0
ARC
8
0
10
165.6098718
20
56.3763246
40
1
50
14.9999979
51
104.9999979
0
ARC
8
0
10
169.2369007
20
50.5674751
40
1
50
194.9999979
51
282.0827639
0
ARC
8
0
10
188.4457788
20
52.6341471
40
1
50
12.0000005
51
102.0827639
0
ARC
8
0
10
192.650258
20
42.4730966
40
1
50
192.0000005
51
278.1757724
0
ARC
8
0
10
212.7194122
20
43.3359082
40
1
50
7.9999997
51
98.1757724
0
ARC
8
0
10
219.8297096
20
-7.2564869
40
1
50
283.5630771
51
7.9999997
0
ARC
8
0
10
171.9546384
20
-20.8634091
40
1
50
103.5630771
51
104.9999979
0
ARC
8
0
10
158.0030003
20
-24.6017393
40
1
50
104.9999979
51
109.9999981
0
ARC
8
0
10
149.6600054
20
-27.638341
40
1
50
109.9999981
51
115.0000017
0
ARC
8
0
10
141.5823748
20
-31.4050021
40
1
50
115.0000017
51
120.0000001
0
ARC
8
0
10
133.8934283
20
-35.8442173
40
1
50
120.0000001
51
124.9999997
0
ARC
8
0
10
121.1625927
20
-42.3168954
40
1
50
270.0027273
51
304.9999997
0
ARC
8
0
10
104.8607144
20
-42.3176716
40
1
50
269.9972727
51
270.0027273
0
ARC
8
0
10
88.5588361
20
-42.3168954
40
1
50
235.0000003
51
269.9972727
0
ARC
8
0
10
75.8280005
20
-35.8442173
40
1
50
55.0000003
51
59.9999999
0
ARC
8
0
10
68.139054
20
-31.4050021
40
1
50
59.9999999
51
64.9999983
0
ARC
8
0
10
60.0614234
20
-27.638341
40
1
50
64.9999983
51
70.0000019
0
ARC
8
0
10
51.7184285
20
-24.6017393
40
1
50
70.0000019
51
75.0000021
0
ARC
8
0
10
37.7667904
20
-20.8634091
40
1
50
75.0000021
51
76.4369229
0
CIRCLE
8
0
10
17.2523779
20
36.1110077
40
1.25
0
CIRCLE
8
0
10
192.4690509
20
36.1110077
40
1.25
0
CIRCLE
8
0
10
10.590518
20
7.0951341
40
1.25
0
CIRCLE
8
0
10
199.1309108
20
7.0951341
40
1.25
0
CIRCLE
8
0
10
62.2418043
20
-8.6683989
40
1.25
0
CIRCLE
8
0
10
147.4796246
20
-8.6683989
40
1.25
0
CIRCLE
8
0
10
73.384982
20
26.5329152
40
1.25
0
CIRCLE
8
0
10
136.3364468
20
26.5329152
40
1.25
0
CIRCLE
8
0
10
104.8607144
20
-29.7991716
40
1.25
0
CIRCLE
8
0
10
104.8607144
20
14.0613225
40
1.25
0
ENDSEC
0
EOF