0
SECTION
2
HEADER
9
$INSUNITS
70
4
0
ENDSEC
0
SECTION
2
TABLES
0
TABLE
2
LTYPE
0
LTYPE
72
65
70
64
2
CONTINUOUS
3
______
73
0
40
0
0
ENDTAB
0
TABLE
2
LAYER
0
ENDTAB
0
ENDSEC
0
SECTION
2
ENTITIES
0
LINE
8
0
10
38.0013061
20
-19.8912968
11
-10.3427965
21
-8.2285992
0
LINE
8
0
10
-11.0985489
20
-7.1173138
11
-3.9882515
21
43.4750813
0
LINE
8
0
10
-2.855773
20
44.3257447
11
16.9289604
21
41.4832601
0
LINE
8
0
10
18.0493184
20
42.2651849
11
20.2975024
21
52.8420588
0
LINE
8
0
10
21.4849744
20
53.6119933
11
40.2752037
21
49.5896289
0
LINE
8
0
10
41.4504539
20
50.3086561
11
43.1456312
21
56.6351436
0
LINE
8
0
10
44.370376
20
57.3422504
11
61.7570408
21
52.6835076
0
LINE
8
0
10
62.4641476
20
51.4587627
11
61.8818048
21
49.2854296
0
LINE
8
0
10
62.5889116
20
48.0606847
11
78.0437247
21
43.9195801
0
LINE
8
0
10
78.7508315
20
42.6948352
11
78.7508315
21
42.6948352
0
LINE
8
0
10
79.4579383
20
41.4700903
11
93.8607144
21
37.6108781
0
LINE
8
0
10
104.8606668
20
-43.3176716
11
88.5587885
21
-43.3168954
0
LINE
8
0
10
87.9852597
20
-43.1360474
11
76.4015769
21
-35.0250653
0
LINE
8
0
10
76.3280005
20
-34.9781919
11
68.639054
21
-30.5389767
0
LINE
8
0
10
68.5616723
20
-30.4986943
11
60.4840417
21
-26.7320332
0
LINE
8
0
10
60.4034435
20
-26.6986484
11
52.0604486
21
-23.6620467
0
LINE
8
0
10
51.9772475
20
-23.6358135
11
38.0256094
21
-19.8974833
0
LINE
8
0
10
171.7201227
20
-19.8912968
11
220.0642253
21
-8.2285992
0
LINE
8
0
10
220.8199777
20
-7.1173138
11
213.7096803
21
43.4750813
0
LINE
8
0
10
212.5772018
20
44.3257447
11
192.7924684
21
41.4832601
0
LINE
8
0
10
191.6721104
20
42.2651849
11
189.4239264
21
52.8420588
0
LINE
8
0
10
188.2364544
20
53.6119933
11
169.4462251
21
49.5896289
0
LINE
8
0
10
168.2709749
20
50.3086561
11
166.5757976
21
56.6351436
0
LINE
8
0
10
165.3510528
20
57.3422504
11
147.964388
21
52.6835076
0
LINE
8
0
10
147.2572812
20
51.4587627
11
147.839624
21
49.2854296
0
LINE
8
0
10
147.1325172
20
48.0606847
11
131.6777041
21
43.9195801
0
LINE
8
0
10
130.9705973
20
42.6948352
11
130.9705973
21
42.6948352
0
LINE
8
0
10
130.2634905
20
41.4700903
11
115.8607144
21
37.6108781
0
LINE
8
0
10
104.860762
20
-43.3176716
11
121.1626403
21
-43.3168954
0
LINE
8
0
10
121.7361691
20
-43.1360474
11
133.3198519
21
-35.0250653
0
LINE
8
0
10
133.3934283
20
-34.9781919
11
141.0823748
21
-30.5389767
0
LINE
8
0
10
141.1597565
20
-30.4986943
11
149.2373871
21
-26.7320332
0
LINE
8
0
10
149.3179853
20
-26.6986484
11
157.6609802
21
-23.6620467
0
LINE
8
0
10
157.7441813
20
-23.6358135
11
171.6958194
21
-19.8974833
0
ARC
8
0
10
-10.1082808
20
-7.2564869
40
1
50
172.0000003
51
256.4369229
0
ARC
8
0
10
-2.9979834
20
43.3359082
40
1
50
81.8242276
51
172.0000003
0
ARC
8
0
10
17.0711708
20
42.4730966
40
1
50
261.8242276
51
347.9999995
0
ARC
8
0
10
21.27565
20
52.6341471
40
1
50
77.9172361
51
167.9999995
0
ARC
8
0
10
40.4845281
20
50.5674751
40
1
50
257.9172361
51
345.0000021
0
ARC
8
0
10
44.111557
20
56.3763246
40
1
50
75.0000021
51
165.0000021
0
ARC
8
0
10
61.4982218
20
51.7175818
40
1
50
344.9999966
51
75.0000021
0
ARC
8
0
10
62.8477306
20
49.0266105
40
1
50
164.9999966
51
255.0000021
0
ARC
8
0
10
77.7849057
20
42.9536543
40
1
50
344.9999966
51
75.0000021
0
ARC
8
0
10
79.7167573
20
42.4360161
40
1
50
164.9999966
51
255.0000021
0
ARC
8
0
10
130.0046715
20
42.4360161
40
1
50
284.9999979
51
15.0000034
0
ARC
8
0
10
131.9365231
20
42.9536543
40
1
50
104.9999979
51
195.0000034
0
ARC
8
0
10
146.8736982
20
49.0266105
40
1
50
284.9999979
51
15.0000034
0
ARC
8
0
10
148.223207
20
51.7175818
40
1
50
104.9999979
51
195.0000034
0
ARC
8
0
10
165.6098718
20
56.3763246
40
1
50
14.9999979
51
104.9999979
0
ARC
8
0
10
169.2369007
20
50.5674751
40
1
50
194.9999979
51
282.0827639
0
ARC
8
0
10
188.4457788
20
52.6341471
40
1
50
12.0000005
51
102.0827639
0
ARC
8
0
10
192.650258
20
42.4730966
40
1
50
192.0000005
51
278.1757724
0
ARC
8
0
10
212.7194122
20
43.3359082
40
1
50
7.9999997
51
98.1757724
0
ARC
8
0
10
219.8297096
20
-7.2564869
40
1
50
283.5630771
51
7.9999997
0
ARC
8
0
10
171.9546384
20
-20.8634091
40
1
50
103.5630771
51
104.9999979
0
ARC
8
0
10
158.0030003
20
-24.6017393
40
1
50
104.9999979
51
109.9999981
0
ARC
8
0
10
149.6600054
20
-27.638341
40
1
50
109.9999981
51
115.0000017
0
ARC
8
0
10
141.5823748
20
-31.4050021
40
1
50
115.0000017
51
120.0000001
0
ARC
8
0
10
133.8934283
20
-35.8442173
40
1
50
120.0000001
51
124.9999997
0
ARC
8
0
10
121.1625927
20
-42.3168954
40
1
50
270.0027273
51
304.9999997
0
ARC
8
0
10
104.8607144
20
-42.3176716
40
1
50
269.9972727
51
270.0027273
0
ARC
8
0
10
88.5588361
20
-42.3168954
40
1
50
235.0000003
51
269.9972727
0
ARC
8
0
10
75.8280005
20
-35.8442173
40
1
50
55.0000003
51
59.9999999
0
ARC
8
0
10
68.139054
20
-31.4050021
40
1
50
59.9999999
51
64.9999983
0
ARC
8
0
10
60.0614234
20
-27.638341
40
1
50
64.9999983
51
70.0000019
0
ARC
8
0
10
51.7184285
20
-24.6017393
40
1
50
70.0000019
51
75.0000021
0
ARC
8
0
10
37.7667904
20
-20.8634091
40
1
50
75.0000021
51
76.4369229
0
LINE
8
0
10
-7.9060882
20
-5.9576648
11
5.9576648
21
-7.9060882
0
LINE
8
0
10
5.9576648
20
-7.9060882
11
7.9060882
21
5.9576648
0
LINE
8
0
10
7.9060882
20
5.9576648
11
-5.9576648
21
7.9060882
0
LINE
8
0
10
-5.9576648
20
7.9060882
11
-7.9060882
21
-5.9576648
0
LINE
8
0
10
-5.5401455
20
10.8768924
11
8.3236075
21
8.928469
0
LINE
8
0
10
8.3236075
20
8.928469
11
10.2720309
21
22.792222
0
LINE
8
0
10
10.2720309
20
22.792222
11
-3.5917221
21
24.7406454
0
LINE
8
0
10
-3.5917221
20
24.7406454
11
-5.5401455
21
10.8768924
0
LINE
8
0
10
-3.1742028
20
27.7114495
11
10.6895502
21
25.7630261
0
LINE
8
0
10
10.6895502
20
25.7630261
11
12.6379736
21
39.6267791
0
LINE
8
0
10
12.6379736
20
39.6267791
11
-1.2257794
21
41.5752025
0
LINE
8
0
10
-1.2257794
20
41.5752025
11
-3.1742028
21
27.7114495
0
LINE
8
0
10
12.9406171
20
3.8014314
11
26.6346835
21
0.8906678
0
LINE
8
0
10
26.6346835
20
0.8906678
11
29.5454471
21
14.5847342
0
LINE
8
0
10
29.5454471
20
14.5847342
11
15.8513807
21
17.4954978
0
LINE
8
0
10
15.8513807
20
17.4954978
11
12.9406171
21
3.8014314
0
LINE
8
0
10
16.4751159
20
20.4299407
11
30.1691823
21
17.5191771
0
LINE
8
0
10
30.1691823
20
17.5191771
11
33.0799459
21
31.2132435
0
LINE
8
0
10
33.0799459
20
31.2132435
11
19.3858795
21
34.1240071
0
LINE
8
0
10
19.3858795
20
34.1240071
11
16.4751159
21
20.4299407
0
LINE
8
0
10
20.0096145
20
37.0584498
11
33.7036809
21
34.1476862
0
LINE
8
0
10
33.7036809
20
34.1476862
11
36.6144445
21
47.8417526
0
LINE
8
0
10
36.6144445
20
47.8417526
11
22.9203781
21
50.7525162
0
LINE
8
0
10
22.9203781
20
50.7525162
11
20.0096145
21
37.0584498
0
LINE
8
0
10
33.2318658
20
8.0453581
11
46.7548274
21
4.4218915
0
LINE
8
0
10
46.7548274
20
4.4218915
11
50.378294
21
17.9448531
0
LINE
8
0
10
50.378294
20
17.9448531
11
36.8553324
21
21.5683197
0
LINE
8
0
10
36.8553324
20
21.5683197
11
33.2318658
21
8.0453581
0
LINE
8
0
10
37.6317895
20
24.4660971
11
51.1547511
21
20.8426305
0
LINE
8
0
10
51.1547511
20
20.8426305
11
54.7782177
21
34.3655921
0
LINE
8
0
10
54.7782177
20
34.3655921
11
41.2552561
21
37.9890587
0
LINE
8
0
10
41.2552561
20
37.9890587
11
37.6317895
21
24.4660971
0
LINE
8
0
10
42.0317134
20
40.8868361
11
55.554675
21
37.2633695
0
LINE
8
0
10
55.554675
20
37.2633695
11
59.1781416
21
50.7863311
0
LINE
8
0
10
59.1781416
20
50.7863311
11
45.65518
21
54.4097977
0
LINE
8
0
10
45.65518
20
54.4097977
11
42.0317134
21
40.8868361
0
LINE
8
0
10
49.5185497
20
-0.7185695
11
63.0415113
21
-4.3420361
0
LINE
8
0
10
63.0415113
20
-4.3420361
11
66.6649779
21
9.1809255
0
LINE
8
0
10
66.6649779
20
9.1809255
11
53.1420163
21
12.8043921
0
LINE
8
0
10
53.1420163
20
12.8043921
11
49.5185497
21
-0.7185695
0
LINE
8
0
10
53.9184734
20
15.7021695
11
67.441435
21
12.0787029
0
LINE
8
0
10
67.441435
20
12.0787029
11
71.0649016
21
25.6016645
0
LINE
8
0
10
71.0649016
20
25.6016645
11
57.54194
21
29.2251311
0
LINE
8
0
10
57.54194
20
29.2251311
11
53.9184734
21
15.7021695
0
LINE
8
0
10
58.3183973
20
32.1229086
11
71.8413589
21
28.499442
0
LINE
8
0
10
71.8413589
20
28.499442
11
75.4648255
21
42.0224036
0
LINE
8
0
10
75.4648255
20
42.0224036
11
61.9418639
21
45.6458702
0
LINE
8
0
10
61.9418639
20
45.6458702
11
58.3183973
21
32.1229086
0
LINE
8
0
10
66.3875764
20
-7.309164
11
79.910538
21
-10.9326306
0
LINE
8
0
10
79.910538
20
-10.9326306
11
83.5340046
21
2.590331
0
LINE
8
0
10
83.5340046
20
2.590331
11
70.011043
21
6.2137976
0
LINE
8
0
10
70.011043
20
6.2137976
11
66.3875764
21
-7.309164
0
LINE
8
0
10
70.7875003
20
9.111575
11
84.3104619
21
5.4881084
0
LINE
8
0
10
84.3104619
20
5.4881084
11
87.9339285
21
19.01107
0
LINE
8
0
10
87.9339285
20
19.01107
11
74.4109669
21
22.6345366
0
LINE
8
0
10
74.4109669
20
22.6345366
11
70.7875003
21
9.111575
0
LINE
8
0
10
75.187424
20
25.5323142
11
88.7103856
21
21.9088476
0
LINE
8
0
10
88.7103856
20
21.9088476
11
92.3338522
21
35.4318092
0
LINE
8
0
10
92.3338522
20
35.4318092
11
78.8108906
21
39.0552758
0
LINE
8
0
10
78.8108906
20
39.0552758
11
75.187424
21
25.5323142
0
LINE
8
0
10
41.5583214
20
-18.2558802
11
55.081283
21
-21.8793468
0
LINE
8
0
10
55.081283
20
-21.8793468
11
58.7047496
21
-8.3563852
0
LINE
8
0
10
58.7047496
20
-8.3563852
11
45.181788
21
-4.7329186
0
LINE
8
0
10
45.181788
20
-4.7329186
11
41.5583214
21
-18.2558802
0
LINE
8
0
10
59.2352483
20
-23.3912665
11
71.9235573
21
-29.3079221
0
LINE
8
0
10
71.9235573
20
-29.3079221
11
77.8402129
21
-16.6196131
0
LINE
8
0
10
77.8402129
20
-16.6196131
11
65.1519039
21
-10.7029575
0
LINE
8
0
10
65.1519039
20
-10.7029575
11
59.2352483
21
-23.3912665
0
LINE
8
0
10
75.7518723
20
-31.5182009
11
87.220001
21
-39.548271
0
LINE
8
0
10
87.220001
20
-39.548271
11
95.2500711
21
-28.0801423
0
LINE
8
0
10
95.2500711
20
-28.0801423
11
83.7819424
21
-20.0500722
0
LINE
8
0
10
83.7819424
20
-20.0500722
11
75.7518723
21
-31.5182009
0
LINE
8
0
10
203.763764
20
-7.9060882
11
217.627517
21
-5.9576648
0
LINE
8
0
10
217.627517
20
-5.9576648
11
215.6790936
21
7.9060882
0
LINE
8
0
10
215.6790936
20
7.9060882
11
201.8153406
21
5.9576648
0
LINE
8
0
10
201.8153406
20
5.9576648
11
203.763764
21
-7.9060882
0
LINE
8
0
10
201.3978213
20
8.928469
11
215.2615743
21
10.8768924
0
LINE
8
0
10
215.2615743
20
10.8768924
11
213.3131509
21
24.7406454
0
LINE
8
0
10
213.3131509
20
24.7406454
11
199.4493979
21
22.792222
0
LINE
8
0
10
199.4493979
20
22.792222
11
201.3978213
21
8.928469
0
LINE
8
0
10
199.0318786
20
25.7630261
11
212.8956316
21
27.7114495
0
LINE
8
0
10
212.8956316
20
27.7114495
11
210.9472082
21
41.5752025
0
LINE
8
0
10
210.9472082
20
41.5752025
11
197.0834552
21
39.6267791
0
LINE
8
0
10
197.0834552
20
39.6267791
11
199.0318786
21
25.7630261
0
LINE
8
0
10
183.0867453
20
0.8906678
11
196.7808117
21
3.8014314
0
LINE
8
0
10
196.7808117
20
3.8014314
11
193.8700481
21
17.4954978
0
LINE
8
0
10
193.8700481
20
17.4954978
11
180.1759817
21
14.5847342
0
LINE
8
0
10
180.1759817
20
14.5847342
11
183.0867453
21
0.8906678
0
LINE
8
0
10
179.5522465
20
17.5191771
11
193.2463129
21
20.4299407
0
LINE
8
0
10
193.2463129
20
20.4299407
11
190.3355493
21
34.1240071
0
LINE
8
0
10
190.3355493
20
34.1240071
11
176.6414829
21
31.2132435
0
LINE
8
0
10
176.6414829
20
31.2132435
11
179.5522465
21
17.5191771
0
LINE
8
0
10
176.0177479
20
34.1476862
11
189.7118143
21
37.0584498
0
LINE
8
0
10
189.7118143
20
37.0584498
11
186.8010507
21
50.7525162
0
LINE
8
0
10
186.8010507
20
50.7525162
11
173.1069843
21
47.8417526
0
LINE
8
0
10
173.1069843
20
47.8417526
11
176.0177479
21
34.1476862
0
LINE
8
0
10
162.9666014
20
4.4218915
11
176.489563
21
8.0453581
0
LINE
8
0
10
176.489563
20
8.0453581
11
172.8660964
21
21.5683197
0
LINE
8
0
10
172.8660964
20
21.5683197
11
159.3431348
21
17.9448531
0
LINE
8
0
10
159.3431348
20
17.9448531
11
162.9666014
21
4.4218915
0
LINE
8
0
10
158.5666777
20
20.8426305
11
172.0896393
21
24.4660971
0
LINE
8
0
10
172.0896393
20
24.4660971
11
168.4661727
21
37.9890587
0
LINE
8
0
10
168.4661727
20
37.9890587
11
154.9432111
21
34.3655921
0
LINE
8
0
10
154.9432111
20
34.3655921
11
158.5666777
21
20.8426305
0
LINE
8
0
10
154.1667538
20
37.2633695
11
167.6897154
21
40.8868361
0
LINE
8
0
10
167.6897154
20
40.8868361
11
164.0662488
21
54.4097977
0
LINE
8
0
10
164.0662488
20
54.4097977
11
150.5432872
21
50.7863311
0
LINE
8
0
10
150.5432872
20
50.7863311
11
154.1667538
21
37.2633695
0
LINE
8
0
10
146.6799175
20
-4.3420361
11
160.2028791
21
-0.7185695
0
LINE
8
0
10
160.2028791
20
-0.7185695
11
156.5794125
21
12.8043921
0
LINE
8
0
10
156.5794125
20
12.8043921
11
143.0564509
21
9.1809255
0
LINE
8
0
10
143.0564509
20
9.1809255
11
146.6799175
21
-4.3420361
0
LINE
8
0
10
142.2799938
20
12.0787029
11
155.8029554
21
15.7021695
0
LINE
8
0
10
155.8029554
20
15.7021695
11
152.1794888
21
29.2251311
0
LINE
8
0
10
152.1794888
20
29.2251311
11
138.6565272
21
25.6016645
0
LINE
8
0
10
138.6565272
20
25.6016645
11
142.2799938
21
12.0787029
0
LINE
8
0
10
137.8800699
20
28.499442
11
151.4030315
21
32.1229086
0
LINE
8
0
10
151.4030315
20
32.1229086
11
147.7795649
21
45.6458702
0
LINE
8
0
10
147.7795649
20
45.6458702
11
134.2566033
21
42.0224036
0
LINE
8
0
10
134.2566033
20
42.0224036
11
137.8800699
21
28.499442
0
LINE
8
0
10
129.8108908
20
-10.9326306
11
143.3338524
21
-7.309164
0
LINE
8
0
10
143.3338524
20
-7.309164
11
139.7103858
21
6.2137976
0
LINE
8
0
10
139.7103858
20
6.2137976
11
126.1874242
21
2.590331
0
LINE
8
0
10
126.1874242
20
2.590331
11
129.8108908
21
-10.9326306
0
LINE
8
0
10
125.4109669
20
5.4881084
11
138.9339285
21
9.111575
0
LINE
8
0
10
138.9339285
20
9.111575
11
135.3104619
21
22.6345366
0
LINE
8
0
10
135.3104619
20
22.6345366
11
121.7875003
21
19.01107
0
LINE
8
0
10
121.7875003
20
19.01107
11
125.4109669
21
5.4881084
0
LINE
8
0
10
121.0110432
20
21.9088476
11
134.5340048
21
25.5323142
0
LINE
8
0
10
134.5340048
20
25.5323142
11
130.9105382
21
39.0552758
0
LINE
8
0
10
130.9105382
20
39.0552758
11
117.3875766
21
35.4318092
0
LINE
8
0
10
117.3875766
20
35.4318092
11
121.0110432
21
21.9088476
0
LINE
8
0
10
154.6401458
20
-21.8793468
11
168.1631074
21
-18.2558802
0
LINE
8
0
10
168.1631074
20
-18.2558802
11
164.5396408
21
-4.7329186
0
LINE
8
0
10
164.5396408
20
-4.7329186
11
151.0166792
21
-8.3563852
0
LINE
8
0
10
151.0166792
20
-8.3563852
11
154.6401458
21
-21.8793468
0
LINE
8
0
10
137.7978715
20
-29.3079221
11
150.4861805
21
-23.3912665
0
LINE
8
0
10
150.4861805
20
-23.3912665
11
144.5695249
21
-10.7029575
0
LINE
8
0
10
144.5695249
20
-10.7029575
11
131.8812159
21
-16.6196131
0
LINE
8
0
10
131.8812159
20
-16.6196131
11
137.7978715
21
-29.3079221
0
LINE
8
0
10
122.5014278
20
-39.548271
11
133.9695565
21
-31.5182009
0
LINE
8
0
10
133.9695565
20
-31.5182009
11
125.9394864
21
-20.0500722
0
LINE
8
0
10
125.9394864
20
-20.0500722
11
114.4713577
21
-28.0801423
0
LINE
8
0
10
114.4713577
20
-28.0801423
11
122.5014278
21
-39.548271
0
LINE
8
0
10
95.8607144
20
14.9820617
11
104.0152918
21
14.9820617
0
LINE
8
0
10
105.706137
20
14.9820617
11
113.8607144
21
14.9820617
0
LINE
8
0
10
115.8607144
20
16.9820617
11
115.8607144
21
37.6108781
0
LINE
8
0
10
93.8607144
20
37.6108781
11
93.8607144
21
16.9820617
0
ARC
8
0
10
113.8607144
20
16.9820617
40
2
50
270
51
0
0
ARC
8
0
10
95.8607144
20
16.9820617
40
2
50
180
51
270
0
CIRCLE
8
0
10
104.8607144
20
-7.8689245
40
18.5
0
CIRCLE
8
0
10
17.2523779
20
36.1110077
40
1.25
0
CIRCLE
8
0
10
192.4690509
20
36.1110077
40
1.25
0
CIRCLE
8
0
10
10.590518
20
7.0951341
40
1.25
0
CIRCLE
8
0
10
199.1309108
20
7.0951341
40
1.25
0
CIRCLE
8
0
10
62.2418043
20
-8.6683989
40
1.25
0
CIRCLE
8
0
10
147.4796246
20
-8.6683989
40
1.25
0
CIRCLE
8
0
10
73.384982
20
26.5329152
40
1.25
0
CIRCLE
8
0
10
136.3364468
20
26.5329152
40
1.25
0
CIRCLE
8
0
10
104.8607144
20
-29.7991716
40
1.25
0
ARC
8
0
10
104.8607144
20
14.0613225
40
1.25
50
132.5581454
51
407.4418546
0
ENDSEC
0
EOF